<svg width="16" height="16" xmlns="http://www.w3.org/2000/svg" xmlns:xlink="http://www.w3.org/1999/xlink" viewBox="0 0 48 48"><defs><style>.cls-1{fill:url(#linear-gradient);}.cls-2{fill:url(#linear-gradient-2);}.cls-3{fill:#e09d20;}.cls-4{fill:#f3de8f;}.cls-5{fill:#ffe996;}</style><linearGradient gradientUnits="userSpaceOnUse" id="linear-gradient" x1="8.66" x2="40.66" y1="19" y2="19"><stop offset="0" stop-color="#edcc50"/><stop offset="1" stop-color="#e8c74d"/></linearGradient><linearGradient gradientUnits="userSpaceOnUse" id="linear-gradient-2" x1="8.66" x2="40.66" y1="29" y2="29"><stop offset="0" stop-color="#fbd855"/><stop offset="1" stop-color="#f6d352"/></linearGradient></defs><title/><g id="icons"><g data-name="Layer 3" id="Layer_3"><rect class="cls-1" height="25" rx="5" ry="5" width="32" x="8.66" y="6.5"/><path class="cls-2" d="M8.66,16.5h32a0,0,0,0,1,0,0v20a5,5,0,0,1-5,5h-22a5,5,0,0,1-5-5v-20A0,0,0,0,1,8.66,16.5Z"/><rect class="cls-3" height="2" width="9.52" x="12" y="30.5"/><rect class="cls-3" height="2" width="5.81" x="12" y="34.5"/><rect class="cls-4" height="10" width="7.41" x="20.96" y="6.5"/><polygon class="cls-5" points="28.37 16.5 20.96 16.5 20.96 24.7 24.66 22.9 28.37 24.7 28.37 16.5"/></g></g></svg>